<?xml version="1.0" encoding="utf-8"?>
<!-- Generator: Adobe Illustrator 24.3.0, SVG Export Plug-In . SVG Version: 6.00 Build 0)  -->
<svg version="1.1" id="Artwork" xmlns="http://www.w3.org/2000/svg" xmlns:xlink="http://www.w3.org/1999/xlink" x="0px" y="0px"
	 viewBox="0 0 525 175" style="enable-background:new 0 0 525 175;" xml:space="preserve">
<style type="text/css">
	.st0{fill:#FF462D;}
</style>
<path id="Kyndryl_logo" class="st0" d="M525,0v131.25h-15.3933V0H525z M213.7351,41.7242c-15.1077,0-24.352,9.6333-25.8266,21.8427
	h-0.7525V43.75h-15.3938v87.5h15.3938l-0.0032-54.4965c0-14.7354,7.8423-21.4874,20.9861-21.4874
	c15.0603,0,21.7937,7.4625,21.7937,22.2691V131.25h15.3933V75.5313C245.3259,54.6411,233.5095,41.7242,213.7351,41.7242z
	 M119.5391,128.8985h-0.5035L92.314,43.75H76.3594l28.2827,87.5h14.1619L104.3833,175h15.3613L162.114,43.75h-15.9494
	L119.5391,128.8985z M457.3835,128.8985h-0.5034L430.158,43.75h-15.9544l28.283,87.5h14.1616L442.2278,175h15.3611l42.3694-131.25
	H484.009L457.3835,128.8985z M32.0469,87.5001L70.0396,43.75H51.3193L15.8989,85.9762h-0.5051V0H0v131.25h15.3938V88.3102H30.021
	L59.6057,131.25h17.8508l-30.642-43.7499H32.0469z M377.7647,63.5767h-0.7496V43.75h-15.3935v87.5h15.3935V76.5977
	c0-14.7358,8.3553-20.104,22.6802-20.104c3.6872,0,6.9771,0.4007,9.5405,1.0227V42.6519c-1.3024-0.542-4.0864-0.9277-7.3026-0.9277
	C388.5371,41.7242,379.4503,50.7342,377.7647,63.5767z M326.4482,0h15.3934v131.25h-15.3934v-19.8173h-0.7451
	c-1.4743,12.2089-10.8391,21.8427-28.5935,21.8427c-21.6619,0-37.0516-17.1838-37.0516-45.7757
	c0-28.592,15.3897-45.7755,37.0516-45.7755c17.7544,0,27.1192,9.6333,28.5935,21.8427h0.7451V0z M326.4592,75.9434
	c0-14.7354-11.1206-20.6773-24.9145-20.6773c-14.543,0-25.419,9.0458-25.419,32.2339c0,23.1882,10.876,32.2334,25.419,32.2334
	c13.7939,0,24.9145-5.9419,24.9145-20.6772V75.9434z"/>
</svg>
